<?xml version="1.0" encoding="utf-8"?><svg xmlns="http://www.w3.org/2000/svg" xmlns:xlink="http://www.w3.org/1999/xlink" width="1810" height="670" preserveAspectRatio="xMidYMid" viewBox="0 0 1810 670" style="z-index:1;margin-right:-2px;display:block;background-repeat-y:initial;background-repeat-x:initial;background-color:rgb(69, 174, 231);animation-play-state:paused" ><g transform="translate(905,335) scale(1,1) translate(-905,-335)" style="transform:matrix(1, 0, 0, 1, 0, 0);animation-play-state:paused" ><linearGradient id="lg-0.11392347440468731" x1="0" x2="1" y1="0" y2="0" style="animation-play-state:paused" ><stop stop-color="#0055a5" offset="0" style="animation-play-state:paused" ></stop>

  
<stop stop-color="#45aee7" offset="1" style="animation-play-state:paused" ></stop></linearGradient>
<path d="M 0 0 L 0 547.822 Q 113.125 661.528 226.25 623.887 T 452.5 470.052 T 678.75 527.177 T 905 439.734 T 1131.25 392.45 T 1357.5 386.126 T 1583.75 296.454 T 1810 293.217 L 1810 0 Z" fill="url(#lg-0.11392347440468731)" opacity="0.4" style="opacity:0.4;animation-play-state:paused" ></path>
<path d="M 0 0 L 0 627.292 Q 113.125 626.17 226.25 612.493 T 452.5 490.776 T 678.75 435.669 T 905 496.376 T 1131.25 383.281 T 1357.5 373.875 T 1583.75 308.15 T 1810 296.388 L 1810 0 Z" fill="url(#lg-0.11392347440468731)" opacity="0.4" style="opacity:0.4;animation-play-state:paused" ></path>
<path d="M 0 0 L 0 628.038 Q 113.125 580.502 226.25 556.167 T 452.5 476.168 T 678.75 479.832 T 905 478.106 T 1131.25 476.692 T 1357.5 443.347 T 1583.75 303.866 T 1810 290.347 L 1810 0 Z" fill="url(#lg-0.11392347440468731)" opacity="0.4" style="opacity:0.4;animation-play-state:paused" ></path></g></svg>